<?xml version="1.0" standalone="no"?><!DOCTYPE svg PUBLIC "-//W3C//DTD SVG 1.1//EN" "http://www.w3.org/Graphics/SVG/1.1/DTD/svg11.dtd"><svg t="1581258338138" class="icon" viewBox="0 0 1024 1024" version="1.1" xmlns="http://www.w3.org/2000/svg" p-id="3959" xmlns:xlink="http://www.w3.org/1999/xlink" width="200" height="200"><defs><style type="text/css"></style></defs><path d="M967.111111 910.222222h-28.444444v-244.622222c0-227.555556-193.422222-409.6-426.666667-409.6s-426.666667 182.044444-426.666667 409.6V910.222222H56.888889c-34.133333 0-56.888889 22.755556-56.888889 56.888889s22.755556 56.888889 56.888889 56.888889h910.222222c34.133333 0 56.888889-22.755556 56.888889-56.888889s-22.755556-56.888889-56.888889-56.888889zM199.111111 665.6C199.111111 500.622222 341.333333 369.777778 512 369.777778s312.888889 130.844444 312.888889 295.822222V910.222222h-625.777778v-244.622222z" fill="#d81e06" p-id="3960"></path><path d="M557.511111 409.6l-176.355555 256H512l-85.333333 176.355556 216.177777-256H512zM512 227.555556c34.133333 0 56.888889-22.755556 56.888889-56.888889V56.888889c0-34.133333-22.755556-56.888889-56.888889-56.888889S455.111111 22.755556 455.111111 56.888889v113.777778c0 34.133333 22.755556 56.888889 56.888889 56.888889zM813.511111 324.266667c17.066667 0 28.444444-5.688889 39.822222-17.066667L932.977778 227.555556c22.755556-22.755556 22.755556-56.888889 0-79.644445s-56.888889-22.755556-79.644445 0L773.688889 227.555556c-22.755556 22.755556-22.755556 56.888889 0 79.644444 11.377778 11.377778 22.755556 17.066667 39.822222 17.066667zM170.666667 307.2c11.377778 11.377778 28.444444 17.066667 39.822222 17.066667s28.444444-5.688889 39.822222-17.066667c22.755556-22.755556 22.755556-56.888889 0-79.644444L170.666667 147.911111c-22.755556-22.755556-56.888889-22.755556-79.644445 0s-22.755556 56.888889 0 79.644445L170.666667 307.2z" fill="#d81e06" p-id="3961"></path></svg>