<?xml version="1.0" standalone="no"?><!DOCTYPE svg PUBLIC "-//W3C//DTD SVG 1.1//EN" "http://www.w3.org/Graphics/SVG/1.1/DTD/svg11.dtd"><svg t="1581262857211" class="icon" viewBox="0 0 1024 1024" version="1.1" xmlns="http://www.w3.org/2000/svg" p-id="11518" xmlns:xlink="http://www.w3.org/1999/xlink" width="200" height="200"><defs><style type="text/css"></style></defs><path d="M 734.293 432.64 H 554.667 l 7.25333 -26.88 c 26.88 -99.84 13.2267 -142.507 2.56 -159.147 a 38.8267 38.8267 0 0 0 -20.9067 -17.0667 a 16.64 16.64 0 0 0 -6.4 0 a 35.84 35.84 0 0 0 0 7.68 a 22.1867 22.1867 0 0 1 0 7.25333 a 249.173 249.173 0 0 1 -92.5867 170.667 a 12.3733 12.3733 0 0 0 -3.84 8.96 v 268.8 h 193.28 a 46.5067 46.5067 0 0 0 42.6667 -25.6 a 868.693 868.693 0 0 0 44.8 -110.507 a 933.973 933.973 0 0 0 27.7333 -109.227 a 11.9467 11.9467 0 0 0 -2.56 -10.6667 a 12.3733 12.3733 0 0 0 -12.3733 -4.26667 Z M 311.893 435.627 a 17.4933 17.4933 0 0 0 -2.98667 10.6667 l 17.0667 236.373 c 0 6.82667 4.69333 11.0933 8.10667 11.0933 h 37.12 v -260.267 H 317.013 a 6.4 6.4 0 0 0 -5.12 2.13333 Z" fill="#ff4081" p-id="11519"></path><path d="M 512 0 a 512 512 0 1 0 512 512 A 512 512 0 0 0 512 0 Z m 276.48 455.68 c -6.4 30.72 -17.0667 76.3733 -29.0133 114.347 a 936.107 936.107 0 0 1 -47.7867 116.053 a 85.3333 85.3333 0 0 1 -79.36 49.4933 h -298.667 a 52.0533 52.0533 0 0 1 -50.3467 -50.7733 l -17.0667 -235.52 a 57.1733 57.1733 0 0 1 11.9467 -40.5333 a 49.92 49.92 0 0 1 38.4 -18.7733 h 61.44 A 81.92 81.92 0 0 0 414.72 384 a 213.333 213.333 0 0 0 78.08 -140.8 v -7.25333 a 47.7867 47.7867 0 0 1 52.48 -48.64 a 73.3867 73.3867 0 0 1 52.0533 33.7067 c 24.32 35.84 28.16 92.5867 11.0933 170.667 h 124.16 a 55.04 55.04 0 0 1 42.6667 20.0533 a 56.7467 56.7467 0 0 1 13.2267 43.9467 Z" fill="#ff4081" p-id="11520"></path></svg>