<?xml version="1.0" standalone="no"?><!DOCTYPE svg PUBLIC "-//W3C//DTD SVG 1.1//EN" "http://www.w3.org/Graphics/SVG/1.1/DTD/svg11.dtd"><svg t="1581259053275" class="icon" viewBox="0 0 1024 1024" version="1.1" xmlns="http://www.w3.org/2000/svg" p-id="6051" xmlns:xlink="http://www.w3.org/1999/xlink" width="200" height="200"><defs><style type="text/css"></style></defs><path d="M512 690.12077c-109.785405 0-199.109804-89.311095-199.109804-199.0965v-257.422908c0-109.785405 89.323375-199.109804 199.109804-199.109803S711.109804 123.814933 711.109804 233.601362v257.422908c-0.001023 109.785405-89.324398 199.096501-199.109804 199.0965z m0-579.204611c-67.642586 0-122.685203 55.042617-122.685203 122.685203v257.422908c0 67.642586 55.042617 122.6719 122.685203 122.6719s122.685203-55.029314 122.685203-122.6719v-257.422908c-0.001023-67.64361-55.042617-122.685203-122.685203-122.685203z" fill="#1195db" p-id="6052"></path><path d="M512 876.306216c-216.250182 0-392.173914-175.936011-392.173914-392.173914 0-21.10876 17.10354-38.2123 38.2123-38.2123s38.2123 17.10354 38.2123 38.2123c0 174.095084 141.641951 315.749314 315.749314 315.749314s315.749314-141.65423 315.749314-315.749314c0-21.10876 17.10354-38.2123 38.2123-38.2123s38.2123 17.10354 38.2123 38.2123c0 216.237903-175.923732 392.173914-392.173914 392.173914z" fill="#1195db" p-id="6053"></path><path d="M473.7877 869.88804h76.4246v118.144794h-76.4246zM550.448684 311.865867h-73.401754c-14.068414 0-25.475208-11.406794-25.475208-25.475208s11.406794-25.475208 25.475208-25.475208h73.401754c14.068414 0 25.475208 11.406794 25.475208 25.475208s-11.406794 25.475208-25.475208 25.475208zM550.448684 461.705524h-73.401754c-14.068414 0-25.475208-11.406794-25.475208-25.475208s11.406794-25.475208 25.475208-25.475208h73.401754c14.068414 0 25.475208 11.406794 25.475208 25.475208s-11.406794 25.475208-25.475208 25.475208z" fill="#1195db" p-id="6054"></path></svg>