<?xml version="1.0" standalone="no"?><!DOCTYPE svg PUBLIC "-//W3C//DTD SVG 1.1//EN" "http://www.w3.org/Graphics/SVG/1.1/DTD/svg11.dtd"><svg t="1581259410958" class="icon" viewBox="0 0 1024 1024" version="1.1" xmlns="http://www.w3.org/2000/svg" p-id="7029" width="200" height="200" xmlns:xlink="http://www.w3.org/1999/xlink"><defs><style type="text/css"></style></defs><path d="M512 64.134737A447.865263 447.865263 0 1 0 959.865263 512 447.865263 447.865263 0 0 0 512 64.134737z m0 819.738947A371.873684 371.873684 0 1 1 883.873684 512 371.873684 371.873684 0 0 1 512 883.873684z" fill="#e98f36" p-id="7030"></path><path d="M464.033684 687.966316A47.966316 47.966316 0 1 0 512 640a47.966316 47.966316 0 0 0-47.966316 47.966316zM488.016842 576.134737h47.966316a8.353684 8.353684 0 0 0 8.08421-8.084211V296.421053a8.084211 8.084211 0 0 0-8.08421-7.814737h-47.966316a8.084211 8.084211 0 0 0-8.08421 7.814737v272.168421a8.353684 8.353684 0 0 0 8.08421 7.545263z" fill="#e98f36" p-id="7031"></path></svg>