<?xml version="1.0" standalone="no"?><!DOCTYPE svg PUBLIC "-//W3C//DTD SVG 1.1//EN" "http://www.w3.org/Graphics/SVG/1.1/DTD/svg11.dtd"><svg t="1580569345081" class="icon" viewBox="0 0 1024 1024" version="1.1" xmlns="http://www.w3.org/2000/svg" p-id="1782" xmlns:xlink="http://www.w3.org/1999/xlink" width="200" height="200"><defs><style type="text/css"></style></defs><path d="M192 554.666667m117.333333 0l362.666667 0q117.333333 0 117.333333 117.333333l0 0q0 117.333333-117.333333 117.333333l-362.666667 0q-117.333333 0-117.333333-117.333333l0 0q0-117.333333 117.333333-117.333333Z" fill="#FFC500" opacity=".3" p-id="1783"></path><path d="M727.829333 270.570667a8.533333 8.533333 0 0 1 9.856-1.6l2.218667 1.6 64.725333 64.725333a8.533333 8.533333 0 0 1 1.6 9.856l-1.6 2.218667-64.725333 64.725333a8.533333 8.533333 0 0 1-14.272-3.754667L725.333333 406.058667l-0.042666-43.221334H638.933333l-6.058666 0.106667c-47.168 1.749333-67.733333 24.896-87.210667 93.525333l-5.056 18.944-12.693333 52.693334c-17.152 68.053333-35.029333 106.24-70.890667 135.616a21.333333 21.333333 0 0 1-27.050667-33.002667c23.424-19.178667 37.674667-45.802667 50.944-92.053333l3.050667-11.008 5.674667-22.549334 7.146666-30.250666 5.333334-20.906667c25.28-93.44 55.253333-131.157333 128.768-133.653333l8.042666-0.128H725.333333L725.333333 276.608a8.533333 8.533333 0 0 1 1.130667-4.266667l1.365333-1.770666z" fill="#FFC500" p-id="1784"></path><path d="M524.096 234.666667a21.333333 21.333333 0 0 1 3.84 42.325333l-3.84 0.341333h-209.066667c-61.333333 0-79.061333 16.896-80.298666 80.789334L234.666667 658.282667c0 67.562667 15.466667 86.954667 73.472 88.32l6.890666 0.064h351.274667c61.333333 0 79.061333-16.896 80.298667-80.789334l0.064-7.594666v-141.653334a21.333333 21.333333 0 0 1 42.325333-3.84l0.341333 3.84v141.653334c0 89.813333-32.597333 128.448-114.389333 130.922666l-8.64 0.128H315.029333c-85.205333 0-120.64-35.626667-122.922666-121.941333L192 658.282667V365.717333c0-89.813333 32.597333-128.448 114.389333-130.922666l8.64-0.128h209.066667z" fill="#3654FD" p-id="1785"></path></svg>